<svg xmlns="http://www.w3.org/2000/svg" version="1.1" xmlns:xlink="http://www.w3.org/1999/xlink" width="512" height="512" x="0" y="0" viewBox="0 0 24 24" style="enable-background:new 0 0 512 512" xml:space="preserve" class=""><g><path d="M17 2.06H7a3.07 3.07 0 0 0-3 3.13v14.68a2.08 2.08 0 0 0 1.21 1.9 2 2 0 0 0 2.11-.35L12 17.16l4.68 4.26a1.94 1.94 0 0 0 1.31.52 2.05 2.05 0 0 0 .8-.17 2.08 2.08 0 0 0 1.21-1.9V5.19a3.07 3.07 0 0 0-3-3.13z" data-name="Layer 49" fill="currentColor" opacity="1" data-original="#000000" class=""></path></g></svg>