<svg xmlns="http://www.w3.org/2000/svg" version="1.1" xmlns:xlink="http://www.w3.org/1999/xlink" width="512" height="512" x="0" y="0" viewBox="0 0 128 128" style="enable-background:new 0 0 512 512" xml:space="preserve" class=""><g><path d="M101.245 123.338a12.146 12.146 0 0 1-7.806-2.846L66.513 97.849l-26.928 22.644a12.145 12.145 0 0 1-7.804 2.845c-1.781 0-3.502-.381-5.119-1.133a12.166 12.166 0 0 1-7.006-10.992V26.02a21.224 21.224 0 0 1 6.255-15.102 21.217 21.217 0 0 1 15.101-6.256h51a21.22 21.22 0 0 1 15.102 6.255 21.217 21.217 0 0 1 6.255 15.102v85.193c0 4.696-2.75 9.011-7.007 10.992a12.016 12.016 0 0 1-5.117 1.134zM66.513 88.622c.915 0 1.831.313 2.575.938l29.501 24.809a4.189 4.189 0 0 0 4.397.583 4.138 4.138 0 0 0 2.384-3.74V26.02c0-3.568-1.389-6.922-3.912-9.445s-5.877-3.913-9.445-3.913h-51c-3.567 0-6.921 1.39-9.444 3.913s-3.913 5.877-3.913 9.445v85.193c0 1.598.935 3.065 2.383 3.739a4.184 4.184 0 0 0 4.396-.582l29.502-24.81a4.002 4.002 0 0 1 2.576-.938z" fill="currentColor" opacity="1" data-original="#000000" class=""></path></g></svg>